<?xml version="1.0" encoding="UTF-8"?>
<svg id="Capa_1" xmlns="http://www.w3.org/2000/svg" version="1.1" viewBox="0 0 200 200">
  <!-- Generator: Adobe Illustrator 29.8.2, SVG Export Plug-In . SVG Version: 2.1.1 Build 3)  -->
  <defs>
    <style>
      .st0 {
        fill: #333;
      }
    </style>
  </defs>
  <path class="st0" d="M102.41,111.2h-19.56v-2.86c1.3-.14,2.41-.29,3.32-.43.91-.14,1.37-.52,1.37-1.13,0-.26-.14-.66-.43-1.21-.29-.55-.58-1.05-.87-1.51-.72-1.12-1.71-2.63-2.97-4.52-1.26-1.89-2.79-4.15-4.61-6.77-1.5,1.88-2.89,3.7-4.16,5.48-1.27,1.78-2.6,3.66-3.99,5.65-.2.29-.41.65-.63,1.08s-.32.78-.32,1.04c0,.63.41,1.16,1.24,1.58.82.42-.9.7.75.84v2.77h-12.83v-2.68c1.96-.58,3.54-1.28,4.74-2.1,1.2-.82,2.3-1.84,3.31-3.05.89-1.16,2.14-2.75,3.75-4.78,1.6-2.03,3.68-4.78,6.22-8.25-1.47-2.1-3.27-4.66-5.39-7.7-2.12-3.03-3.87-5.56-5.26-7.57-.75-1.1-1.61-1.98-2.58-2.66-.97-.68-2.33-1.02-4.09-1.02v-2.86h18.56v2.86c-.92,0-1.83.06-2.72.17-.89.12-1.34.37-1.34.78,0,.26.09.55.26.87.17.32.39.66.65,1.04.63.98,1.62,2.49,2.96,4.54,1.34,2.05,2.79,4.21,4.34,6.49,1.01-1.38,2.19-3,3.53-4.84,1.34-1.85,2.58-3.6,3.71-5.28.11-.2.23-.45.35-.76.12-.3.17-.6.17-.89,0-.61-.5-1.09-1.5-1.45-1-.36-1.95-.61-2.84-.76v-2.77h15.75v2.68c-2.22.58-3.95,1.26-5.19,2.05-1.24.79-2.29,1.71-3.16,2.75-.95,1.18-2.08,2.64-3.39,4.37-1.31,1.73-3.15,4.15-5.51,7.27,2.62,3.69,4.76,6.72,6.4,9.08,1.64,2.36,3.3,4.8,4.97,7.31.84,1.27,1.77,2.27,2.79,3.01,1.02.74,2.43,1.16,4.22,1.28v2.86Z"/>
  <path d="M91.74,140.16h-32.92v-3.96c2.9-.19,5.31-.56,7.23-1.12,1.92-.56,2.87-1.25,2.87-2.07,0-.33-.04-.74-.11-1.23-.07-.48-.19-.91-.33-1.28l-6.56-17.75h-27.8c-1.04,2.6-1.89,4.87-2.54,6.81-.65,1.93-1.24,3.72-1.76,5.36-.48,1.6-.82,2.9-1.01,3.91-.19,1-.28,1.82-.28,2.46,0,1.49,1.17,2.64,3.52,3.46,2.34.82,4.99,1.3,7.93,1.45v3.96H10.15v-3.96c.97-.07,2.18-.29,3.63-.64,1.45-.35,2.64-.83,3.57-1.42,1.49-1,2.64-2.05,3.46-3.15.82-1.1,1.62-2.61,2.4-4.55,3.98-9.93,8.37-21.1,13.17-33.49,4.8-12.39,9.08-23.42,12.84-33.1h4.46l26.4,68.31c.56,1.45,1.19,2.62,1.9,3.52.71.89,1.69,1.77,2.96,2.62.86.52,1.97.96,3.35,1.31,1.38.35,2.53.55,3.46.59v3.96ZM59.88,107.79l-12-30.73-11.82,30.73h23.82Z"/>
  <path d="M189.85,140.16h-34.99v-3.96c1.27-.04,2.89-.17,4.88-.39,1.99-.22,3.36-.54,4.1-.95,1.15-.71,2-1.52,2.54-2.43.54-.91.81-2.06.81-3.43v-57.6h-.84l-27.01,67.47h-2.79l-25.73-68.87h-.73v47.27c0,4.58.29,8.06.87,10.44.58,2.38,1.46,4.09,2.65,5.13.82.78,2.51,1.53,5.08,2.23,2.57.71,4.24,1.08,5.02,1.12v3.96h-31.98v-3.96c1.67-.15,3.43-.43,5.27-.84,1.84-.41,3.26-1.02,4.27-1.84,1.3-1.04,2.19-2.64,2.68-4.8.48-2.16.73-5.77.73-10.83v-40.52c0-2.34-.28-4.26-.84-5.75-.56-1.49-1.36-2.7-2.4-3.63-1.15-1-2.57-1.75-4.24-2.23-1.67-.48-3.33-.76-4.97-.84v-3.96h27l22.69,59.44,19.37-49.73c.71-1.82,1.31-3.73,1.81-5.72.5-1.99.77-3.32.81-3.99h25.83v3.96c-1.04.04-2.37.2-3.99.5-1.62.3-2.8.58-3.54.84-1.27.45-2.12,1.19-2.57,2.23-.45,1.04-.67,2.18-.67,3.4v57.09c0,1.3.22,2.4.67,3.29.45.89,1.3,1.67,2.57,2.34.67.37,1.86.72,3.57,1.03,1.71.32,3.07.49,4.07.53v3.96Z"/>
</svg>